<svg width="834" height="527" viewBox="0 0 834 527" fill="none" xmlns="http://www.w3.org/2000/svg">
<rect width="834" height="527" fill="#0A0616"/>
<path d="M470.308 266.329L416.219 155.751L407.887 151.374H400.402L386.28 149.114H372.158L360.436 155.751L416.219 266.329H470.308Z" fill="#43D9B8"/>
<path d="M470.308 266.329L416.219 155.751L407.887 151.374H400.402L386.28 149.114H372.158L360.436 155.751L416.219 266.329H470.308Z" fill="url(#paint0_linear_1_3)"/>
<path d="M309.455 173.476L364.606 283.528L372.98 287.825L380.465 287.753L394.608 289.876L408.73 289.74L420.387 282.99L363.54 172.955L309.455 173.476Z" fill="#43D9B8"/>
<path d="M309.455 173.476L364.606 283.528L372.98 287.825L380.465 287.753L394.608 289.876L408.73 289.74L420.387 282.99L363.54 172.955L309.455 173.476Z" fill="url(#paint1_linear_1_3)"/>
<g filter="url(#filter0_d_1_3)">
<path d="M341.653 155.61L287 267.6H341.653L377.948 193.176L397.013 155.61C401.604 150.438 405.521 151.285 414.948 155.61C424.375 159.935 368.121 118.417 341.653 155.61Z" fill="#43D9B8"/>
<path d="M341.653 155.61L287 267.6H341.653L377.948 193.176L397.013 155.61C401.604 150.438 405.521 151.285 414.948 155.61C424.375 159.935 368.121 118.417 341.653 155.61Z" fill="#43D9B8"/>
</g>
<g filter="url(#filter1_d_1_3)">
<path d="M439.17 282.95L492.741 170.439L438.09 170.965L402.515 245.736L383.813 283.484C379.272 288.7 375.347 287.891 365.878 283.657C356.41 279.422 413.062 320.397 439.17 282.95Z" fill="#43D9B8"/>
<path d="M439.17 282.95L492.741 170.439L438.09 170.965L402.515 245.736L383.813 283.484C379.272 288.7 375.347 287.891 365.878 283.657C356.41 279.422 413.062 320.397 439.17 282.95Z" fill="#43D9B8"/>
</g>
<path d="M302.008 346L294.456 336.08V346H288.984V323.536H294.456V333.392L301.944 323.536H308.376L299.672 334.544L308.696 346H302.008ZM328.128 336.784C328.128 337.296 328.097 337.829 328.033 338.384H315.649C315.734 339.493 316.086 340.347 316.705 340.944C317.345 341.52 318.123 341.808 319.041 341.808C320.406 341.808 321.355 341.232 321.889 340.08H327.713C327.414 341.253 326.87 342.309 326.081 343.248C325.313 344.187 324.342 344.923 323.169 345.456C321.995 345.989 320.683 346.256 319.233 346.256C317.483 346.256 315.926 345.883 314.561 345.136C313.195 344.389 312.129 343.323 311.361 341.936C310.593 340.549 310.209 338.928 310.209 337.072C310.209 335.216 310.582 333.595 311.329 332.208C312.097 330.821 313.163 329.755 314.529 329.008C315.894 328.261 317.462 327.888 319.233 327.888C320.961 327.888 322.497 328.251 323.841 328.976C325.185 329.701 326.23 330.736 326.977 332.08C327.745 333.424 328.128 334.992 328.128 336.784ZM322.529 335.344C322.529 334.405 322.209 333.659 321.569 333.104C320.929 332.549 320.129 332.272 319.169 332.272C318.251 332.272 317.473 332.539 316.833 333.072C316.214 333.605 315.83 334.363 315.681 335.344H322.529ZM347.847 336.784C347.847 337.296 347.815 337.829 347.751 338.384H335.367C335.453 339.493 335.805 340.347 336.423 340.944C337.063 341.52 337.842 341.808 338.759 341.808C340.125 341.808 341.074 341.232 341.607 340.08H347.431C347.133 341.253 346.589 342.309 345.799 343.248C345.031 344.187 344.061 344.923 342.887 345.456C341.714 345.989 340.402 346.256 338.951 346.256C337.202 346.256 335.645 345.883 334.279 345.136C332.914 344.389 331.847 343.323 331.079 341.936C330.311 340.549 329.927 338.928 329.927 337.072C329.927 335.216 330.301 333.595 331.047 332.208C331.815 330.821 332.882 329.755 334.247 329.008C335.613 328.261 337.181 327.888 338.951 327.888C340.679 327.888 342.215 328.251 343.559 328.976C344.903 329.701 345.949 330.736 346.695 332.08C347.463 333.424 347.847 334.992 347.847 336.784ZM342.247 335.344C342.247 334.405 341.927 333.659 341.287 333.104C340.647 332.549 339.847 332.272 338.887 332.272C337.97 332.272 337.191 332.539 336.551 333.072C335.933 333.605 335.549 334.363 335.399 335.344H342.247ZM356.206 330.672C356.739 329.84 357.475 329.168 358.414 328.656C359.353 328.144 360.451 327.888 361.71 327.888C363.182 327.888 364.515 328.261 365.71 329.008C366.905 329.755 367.843 330.821 368.526 332.208C369.23 333.595 369.582 335.205 369.582 337.04C369.582 338.875 369.23 340.496 368.526 341.904C367.843 343.291 366.905 344.368 365.71 345.136C364.515 345.883 363.182 346.256 361.71 346.256C360.473 346.256 359.374 346 358.414 345.488C357.475 344.976 356.739 344.315 356.206 343.504V354.512H350.734V328.144H356.206V330.672ZM364.014 337.04C364.014 335.675 363.63 334.608 362.862 333.84C362.115 333.051 361.187 332.656 360.078 332.656C358.99 332.656 358.062 333.051 357.294 333.84C356.547 334.629 356.174 335.707 356.174 337.072C356.174 338.437 356.547 339.515 357.294 340.304C358.062 341.093 358.99 341.488 360.078 341.488C361.166 341.488 362.094 341.093 362.862 340.304C363.63 339.493 364.014 338.405 364.014 337.04ZM394.146 330.64C393.741 329.893 393.154 329.328 392.386 328.944C391.639 328.539 390.754 328.336 389.73 328.336C387.959 328.336 386.541 328.923 385.474 330.096C384.407 331.248 383.874 332.795 383.874 334.736C383.874 336.805 384.429 338.427 385.538 339.6C386.669 340.752 388.215 341.328 390.178 341.328C391.522 341.328 392.653 340.987 393.57 340.304C394.509 339.621 395.191 338.64 395.618 337.36H388.674V333.328H400.578V338.416C400.173 339.781 399.479 341.051 398.498 342.224C397.538 343.397 396.311 344.347 394.818 345.072C393.325 345.797 391.639 346.16 389.762 346.16C387.543 346.16 385.559 345.68 383.81 344.72C382.082 343.739 380.727 342.384 379.746 340.656C378.786 338.928 378.306 336.955 378.306 334.736C378.306 332.517 378.786 330.544 379.746 328.816C380.727 327.067 382.082 325.712 383.81 324.752C385.538 323.771 387.511 323.28 389.73 323.28C392.418 323.28 394.679 323.931 396.514 325.232C398.37 326.533 399.597 328.336 400.194 330.64H394.146ZM411.737 346.256C409.988 346.256 408.409 345.883 407.001 345.136C405.614 344.389 404.516 343.323 403.705 341.936C402.916 340.549 402.521 338.928 402.521 337.072C402.521 335.237 402.926 333.627 403.737 332.24C404.548 330.832 405.657 329.755 407.065 329.008C408.473 328.261 410.052 327.888 411.801 327.888C413.55 327.888 415.129 328.261 416.537 329.008C417.945 329.755 419.054 330.832 419.865 332.24C420.676 333.627 421.081 335.237 421.081 337.072C421.081 338.907 420.665 340.528 419.833 341.936C419.022 343.323 417.902 344.389 416.473 345.136C415.065 345.883 413.486 346.256 411.737 346.256ZM411.737 341.52C412.782 341.52 413.668 341.136 414.393 340.368C415.14 339.6 415.513 338.501 415.513 337.072C415.513 335.643 415.15 334.544 414.425 333.776C413.721 333.008 412.846 332.624 411.801 332.624C410.734 332.624 409.849 333.008 409.145 333.776C408.441 334.523 408.089 335.621 408.089 337.072C408.089 338.501 408.43 339.6 409.113 340.368C409.817 341.136 410.692 341.52 411.737 341.52ZM426.736 326.288C425.776 326.288 424.987 326.011 424.368 325.456C423.771 324.88 423.472 324.176 423.472 323.344C423.472 322.491 423.771 321.787 424.368 321.232C424.987 320.656 425.776 320.368 426.736 320.368C427.675 320.368 428.443 320.656 429.04 321.232C429.659 321.787 429.968 322.491 429.968 323.344C429.968 324.176 429.659 324.88 429.04 325.456C428.443 326.011 427.675 326.288 426.736 326.288ZM429.456 328.144V346H423.984V328.144H429.456ZM444.302 327.952C446.392 327.952 448.056 328.635 449.294 330C450.552 331.344 451.182 333.2 451.182 335.568V346H445.742V336.304C445.742 335.109 445.432 334.181 444.814 333.52C444.195 332.859 443.363 332.528 442.318 332.528C441.272 332.528 440.44 332.859 439.822 333.52C439.203 334.181 438.894 335.109 438.894 336.304V346H433.422V328.144H438.894V330.512C439.448 329.723 440.195 329.104 441.134 328.656C442.072 328.187 443.128 327.952 444.302 327.952ZM461.768 327.888C463.027 327.888 464.125 328.144 465.064 328.656C466.024 329.168 466.76 329.84 467.272 330.672V328.144H472.744V345.968C472.744 347.611 472.413 349.093 471.752 350.416C471.112 351.76 470.12 352.827 468.776 353.616C467.453 354.405 465.8 354.8 463.816 354.8C461.171 354.8 459.027 354.171 457.384 352.912C455.741 351.675 454.803 349.989 454.568 347.856H459.976C460.147 348.539 460.552 349.072 461.192 349.456C461.832 349.861 462.621 350.064 463.56 350.064C464.691 350.064 465.587 349.733 466.248 349.072C466.931 348.432 467.272 347.397 467.272 345.968V343.44C466.739 344.272 466.003 344.955 465.064 345.488C464.125 346 463.027 346.256 461.768 346.256C460.296 346.256 458.963 345.883 457.768 345.136C456.573 344.368 455.624 343.291 454.92 341.904C454.237 340.496 453.896 338.875 453.896 337.04C453.896 335.205 454.237 333.595 454.92 332.208C455.624 330.821 456.573 329.755 457.768 329.008C458.963 328.261 460.296 327.888 461.768 327.888ZM467.272 337.072C467.272 335.707 466.888 334.629 466.12 333.84C465.373 333.051 464.456 332.656 463.368 332.656C462.28 332.656 461.352 333.051 460.584 333.84C459.837 334.608 459.464 335.675 459.464 337.04C459.464 338.405 459.837 339.493 460.584 340.304C461.352 341.093 462.28 341.488 463.368 341.488C464.456 341.488 465.373 341.093 466.12 340.304C466.888 339.515 467.272 338.437 467.272 337.072ZM479.263 346.256C478.303 346.256 477.513 345.979 476.895 345.424C476.297 344.848 475.999 344.144 475.999 343.312C475.999 342.459 476.297 341.744 476.895 341.168C477.513 340.592 478.303 340.304 479.263 340.304C480.201 340.304 480.969 340.592 481.567 341.168C482.185 341.744 482.495 342.459 482.495 343.312C482.495 344.144 482.185 344.848 481.567 345.424C480.969 345.979 480.201 346.256 479.263 346.256ZM488.294 346.256C487.334 346.256 486.545 345.979 485.926 345.424C485.329 344.848 485.03 344.144 485.03 343.312C485.03 342.459 485.329 341.744 485.926 341.168C486.545 340.592 487.334 340.304 488.294 340.304C489.233 340.304 490.001 340.592 490.598 341.168C491.217 341.744 491.526 342.459 491.526 343.312C491.526 344.144 491.217 344.848 490.598 345.424C490.001 345.979 489.233 346.256 488.294 346.256ZM501.965 322.736L501.325 338.064H496.685L496.045 322.736H501.965ZM499.085 346.256C498.125 346.256 497.336 345.979 496.717 345.424C496.12 344.848 495.821 344.144 495.821 343.312C495.821 342.459 496.12 341.744 496.717 341.168C497.336 340.592 498.125 340.304 499.085 340.304C500.024 340.304 500.792 340.592 501.389 341.168C502.008 341.744 502.317 342.459 502.317 343.312C502.317 344.144 502.008 344.848 501.389 345.424C500.792 345.979 500.024 346.256 499.085 346.256ZM514.497 322.736L513.857 338.064H509.217L508.577 322.736H514.497ZM511.617 346.256C510.657 346.256 509.867 345.979 509.249 345.424C508.651 344.848 508.353 344.144 508.353 343.312C508.353 342.459 508.651 341.744 509.249 341.168C509.867 340.592 510.657 340.304 511.617 340.304C512.555 340.304 513.323 340.592 513.921 341.168C514.539 341.744 514.849 342.459 514.849 343.312C514.849 344.144 514.539 344.848 513.921 345.424C513.323 345.979 512.555 346.256 511.617 346.256Z" fill="white"/>
<defs>
<filter id="filter0_d_1_3" x="284.176" y="138.305" width="134.65" height="133.249" filterUnits="userSpaceOnUse" color-interpolation-filters="sRGB">
<feFlood flood-opacity="0" result="BackgroundImageFix"/>
<feColorMatrix in="SourceAlpha" type="matrix" values="0 0 0 0 0 0 0 0 0 0 0 0 0 0 0 0 0 0 127 0" result="hardAlpha"/>
<feOffset dy="1.12978"/>
<feGaussianBlur stdDeviation="1.41223"/>
<feComposite in2="hardAlpha" operator="out"/>
<feColorMatrix type="matrix" values="0 0 0 0 0 0 0 0 0 0 0 0 0 0 0 0 0 0 0.25 0"/>
<feBlend mode="normal" in2="BackgroundImageFix" result="effect1_dropShadow_1_3"/>
<feBlend mode="normal" in="SourceGraphic" in2="effect1_dropShadow_1_3" result="shape"/>
</filter>
<filter id="filter1_d_1_3" x="361.999" y="168.744" width="133.567" height="134.069" filterUnits="userSpaceOnUse" color-interpolation-filters="sRGB">
<feFlood flood-opacity="0" result="BackgroundImageFix"/>
<feColorMatrix in="SourceAlpha" type="matrix" values="0 0 0 0 0 0 0 0 0 0 0 0 0 0 0 0 0 0 127 0" result="hardAlpha"/>
<feOffset dy="1.12978"/>
<feGaussianBlur stdDeviation="1.41223"/>
<feComposite in2="hardAlpha" operator="out"/>
<feColorMatrix type="matrix" values="0 0 0 0 0 0 0 0 0 0 0 0 0 0 0 0 0 0 0.25 0"/>
<feBlend mode="normal" in2="BackgroundImageFix" result="effect1_dropShadow_1_3"/>
<feBlend mode="normal" in="SourceGraphic" in2="effect1_dropShadow_1_3" result="shape"/>
</filter>
<linearGradient id="paint0_linear_1_3" x1="415.372" y1="217.748" x2="360.577" y2="172.981" gradientUnits="userSpaceOnUse">
<stop stop-color="#0F052F"/>
<stop offset="1" stop-color="#43D9B8"/>
</linearGradient>
<linearGradient id="paint1_linear_1_3" x1="364.856" y1="221.525" x2="420.079" y2="265.763" gradientUnits="userSpaceOnUse">
<stop stop-color="#0F052F"/>
<stop offset="1" stop-color="#43D9B8"/>
</linearGradient>
</defs>
</svg>
