<svg width="834" height="527" viewBox="0 0 834 527" fill="none" xmlns="http://www.w3.org/2000/svg">
<rect width="834" height="527" fill="#1F1B2E"/>
<path d="M470.308 266.329L416.219 155.751L407.887 151.374H400.402L386.28 149.114H372.158L360.436 155.751L416.219 266.329H470.308Z" fill="#43D9B8"/>
<path d="M470.308 266.329L416.219 155.751L407.887 151.374H400.402L386.28 149.114H372.158L360.436 155.751L416.219 266.329H470.308Z" fill="url(#paint0_linear_1_3)"/>
<path d="M309.455 173.476L364.606 283.528L372.98 287.825L380.465 287.753L394.608 289.876L408.73 289.74L420.387 282.99L363.54 172.955L309.455 173.476Z" fill="#43D9B8"/>
<path d="M309.455 173.476L364.606 283.528L372.98 287.825L380.465 287.753L394.608 289.876L408.73 289.74L420.387 282.99L363.54 172.955L309.455 173.476Z" fill="url(#paint1_linear_1_3)"/>
<g filter="url(#filter0_d_1_3)">
<path d="M341.653 155.61L287 267.6H341.653L377.948 193.176L397.013 155.61C401.604 150.438 405.521 151.285 414.948 155.61C424.375 159.935 368.121 118.417 341.653 155.61Z" fill="#43D9B8"/>
<path d="M341.653 155.61L287 267.6H341.653L377.948 193.176L397.013 155.61C401.604 150.438 405.521 151.285 414.948 155.61C424.375 159.935 368.121 118.417 341.653 155.61Z" fill="#43D9B8"/>
</g>
<g filter="url(#filter1_d_1_3)">
<path d="M439.17 282.95L492.741 170.439L438.09 170.965L402.515 245.736L383.813 283.484C379.272 288.7 375.347 287.891 365.878 283.657C356.41 279.422 413.062 320.397 439.17 282.95Z" fill="#43D9B8"/>
<path d="M439.17 282.95L492.741 170.439L438.09 170.965L402.515 245.736L383.813 283.484C379.272 288.7 375.347 287.891 365.878 283.657C356.41 279.422 413.062 320.397 439.17 282.95Z" fill="#43D9B8"/>
</g>
<path d="M264.376 351.252C262.528 351.252 260.872 350.952 259.408 350.352C257.944 349.752 256.768 348.864 255.88 347.688C255.016 346.512 254.56 345.096 254.512 343.44H261.064C261.16 344.376 261.484 345.096 262.036 345.6C262.588 346.08 263.308 346.32 264.196 346.32C265.108 346.32 265.828 346.116 266.356 345.708C266.884 345.276 267.148 344.688 267.148 343.944C267.148 343.32 266.932 342.804 266.5 342.396C266.092 341.988 265.576 341.652 264.952 341.388C264.352 341.124 263.488 340.824 262.36 340.488C260.728 339.984 259.396 339.48 258.364 338.976C257.332 338.472 256.444 337.728 255.7 336.744C254.956 335.76 254.584 334.476 254.584 332.892C254.584 330.54 255.436 328.704 257.14 327.384C258.844 326.04 261.064 325.368 263.8 325.368C266.584 325.368 268.828 326.04 270.532 327.384C272.236 328.704 273.148 330.552 273.268 332.928H266.608C266.56 332.112 266.26 331.476 265.708 331.02C265.156 330.54 264.448 330.3 263.584 330.3C262.84 330.3 262.24 330.504 261.784 330.912C261.328 331.296 261.1 331.86 261.1 332.604C261.1 333.42 261.484 334.056 262.252 334.512C263.02 334.968 264.22 335.46 265.852 335.988C267.484 336.54 268.804 337.068 269.812 337.572C270.844 338.076 271.732 338.808 272.476 339.768C273.22 340.728 273.592 341.964 273.592 343.476C273.592 344.916 273.22 346.224 272.476 347.4C271.756 348.576 270.7 349.512 269.308 350.208C267.916 350.904 266.272 351.252 264.376 351.252ZM297.216 330.912V351H291.06V348.264C290.436 349.152 289.584 349.872 288.504 350.424C287.448 350.952 286.272 351.216 284.976 351.216C283.44 351.216 282.084 350.88 280.908 350.208C279.732 349.512 278.82 348.516 278.172 347.22C277.524 345.924 277.2 344.4 277.2 342.648V330.912H283.32V341.82C283.32 343.164 283.668 344.208 284.364 344.952C285.06 345.696 285.996 346.068 287.172 346.068C288.372 346.068 289.32 345.696 290.016 344.952C290.712 344.208 291.06 343.164 291.06 341.82V330.912H297.216ZM300.414 340.92C300.414 338.856 300.798 337.044 301.566 335.484C302.358 333.924 303.426 332.724 304.77 331.884C306.114 331.044 307.614 330.624 309.27 330.624C310.59 330.624 311.79 330.9 312.87 331.452C313.974 332.004 314.838 332.748 315.462 333.684V324.36H321.618V351H315.462V348.12C314.886 349.08 314.058 349.848 312.978 350.424C311.922 351 310.686 351.288 309.27 351.288C307.614 351.288 306.114 350.868 304.77 350.028C303.426 349.164 302.358 347.952 301.566 346.392C300.798 344.808 300.414 342.984 300.414 340.92ZM315.462 340.956C315.462 339.42 315.03 338.208 314.166 337.32C313.326 336.432 312.294 335.988 311.07 335.988C309.846 335.988 308.802 336.432 307.938 337.32C307.098 338.184 306.678 339.384 306.678 340.92C306.678 342.456 307.098 343.68 307.938 344.592C308.802 345.48 309.846 345.924 311.07 345.924C312.294 345.924 313.326 345.48 314.166 344.592C315.03 343.704 315.462 342.492 315.462 340.956ZM338.42 330.696C340.724 330.696 342.572 331.464 343.964 333C345.356 334.512 346.052 336.6 346.052 339.264V351H339.932V340.092C339.932 338.748 339.584 337.704 338.888 336.96C338.192 336.216 337.256 335.844 336.08 335.844C334.904 335.844 333.968 336.216 333.272 336.96C332.576 337.704 332.228 338.748 332.228 340.092V351H326.072V324.36H332.228V333.612C332.852 332.724 333.704 332.016 334.784 331.488C335.864 330.96 337.076 330.696 338.42 330.696ZM353.426 328.824C352.346 328.824 351.458 328.512 350.762 327.888C350.09 327.24 349.754 326.448 349.754 325.512C349.754 324.552 350.09 323.76 350.762 323.136C351.458 322.488 352.346 322.164 353.426 322.164C354.482 322.164 355.346 322.488 356.018 323.136C356.714 323.76 357.062 324.552 357.062 325.512C357.062 326.448 356.714 327.24 356.018 327.888C355.346 328.512 354.482 328.824 353.426 328.824ZM356.486 330.912V351H350.33V330.912H356.486ZM367.103 334.26C367.823 333.156 368.723 332.292 369.803 331.668C370.883 331.02 372.083 330.696 373.403 330.696V337.212H371.711C370.175 337.212 369.023 337.548 368.255 338.22C367.487 338.868 367.103 340.02 367.103 341.676V351H360.947V330.912H367.103V334.26ZM399.814 325.728V342.936C399.814 345.6 399.058 347.652 397.546 349.092C396.058 350.532 394.042 351.252 391.498 351.252C388.834 351.252 386.698 350.496 385.09 348.984C383.482 347.472 382.678 345.324 382.678 342.54H388.798C388.798 343.596 389.014 344.4 389.446 344.952C389.878 345.48 390.502 345.744 391.318 345.744C392.062 345.744 392.638 345.504 393.046 345.024C393.454 344.544 393.658 343.848 393.658 342.936V325.728H399.814ZM403.563 340.92C403.563 338.856 403.947 337.044 404.715 335.484C405.507 333.924 406.575 332.724 407.919 331.884C409.263 331.044 410.763 330.624 412.419 330.624C413.835 330.624 415.071 330.912 416.127 331.488C417.207 332.064 418.035 332.82 418.611 333.756V330.912H424.767V351H418.611V348.156C418.011 349.092 417.171 349.848 416.091 350.424C415.035 351 413.799 351.288 412.383 351.288C410.751 351.288 409.263 350.868 407.919 350.028C406.575 349.164 405.507 347.952 404.715 346.392C403.947 344.808 403.563 342.984 403.563 340.92ZM418.611 340.956C418.611 339.42 418.179 338.208 417.315 337.32C416.475 336.432 415.443 335.988 414.219 335.988C412.995 335.988 411.951 336.432 411.087 337.32C410.247 338.184 409.827 339.384 409.827 340.92C409.827 342.456 410.247 343.68 411.087 344.592C411.951 345.48 412.995 345.924 414.219 345.924C415.443 345.924 416.475 345.48 417.315 344.592C418.179 343.704 418.611 342.492 418.611 340.956ZM432.316 328.824C431.236 328.824 430.348 328.512 429.652 327.888C428.98 327.24 428.644 326.448 428.644 325.512C428.644 324.552 428.98 323.76 429.652 323.136C430.348 322.488 431.236 322.164 432.316 322.164C433.372 322.164 434.236 322.488 434.908 323.136C435.604 323.76 435.952 324.552 435.952 325.512C435.952 326.448 435.604 327.24 434.908 327.888C434.236 328.512 433.372 328.824 432.316 328.824ZM435.376 330.912V351H429.22V330.912H435.376ZM448.009 351.288C446.257 351.288 444.697 350.988 443.329 350.388C441.961 349.788 440.881 348.972 440.089 347.94C439.297 346.884 438.853 345.708 438.757 344.412H444.841C444.913 345.108 445.237 345.672 445.813 346.104C446.389 346.536 447.097 346.752 447.937 346.752C448.705 346.752 449.293 346.608 449.701 346.32C450.133 346.008 450.349 345.612 450.349 345.132C450.349 344.556 450.049 344.136 449.449 343.872C448.849 343.584 447.877 343.272 446.533 342.936C445.093 342.6 443.893 342.252 442.933 341.892C441.973 341.508 441.145 340.92 440.449 340.128C439.753 339.312 439.405 338.22 439.405 336.852C439.405 335.7 439.717 334.656 440.341 333.72C440.989 332.76 441.925 332.004 443.149 331.452C444.397 330.9 445.873 330.624 447.577 330.624C450.097 330.624 452.077 331.248 453.517 332.496C454.981 333.744 455.821 335.4 456.037 337.464H450.349C450.253 336.768 449.941 336.216 449.413 335.808C448.909 335.4 448.237 335.196 447.397 335.196C446.677 335.196 446.125 335.34 445.741 335.628C445.357 335.892 445.165 336.264 445.165 336.744C445.165 337.32 445.465 337.752 446.065 338.04C446.689 338.328 447.649 338.616 448.945 338.904C450.433 339.288 451.645 339.672 452.581 340.056C453.517 340.416 454.333 341.016 455.029 341.856C455.749 342.672 456.121 343.776 456.145 345.168C456.145 346.344 455.809 347.4 455.137 348.336C454.489 349.248 453.541 349.968 452.293 350.496C451.069 351.024 449.641 351.288 448.009 351.288ZM488.748 330.912L483.312 351H476.508L473.34 337.968L470.064 351H463.296L457.824 330.912H463.98L466.824 345.276L470.208 330.912H476.724L480.144 345.204L482.952 330.912H488.748ZM489.871 340.92C489.871 338.856 490.255 337.044 491.023 335.484C491.815 333.924 492.883 332.724 494.227 331.884C495.571 331.044 497.071 330.624 498.727 330.624C500.143 330.624 501.379 330.912 502.435 331.488C503.515 332.064 504.343 332.82 504.919 333.756V330.912H511.075V351H504.919V348.156C504.319 349.092 503.479 349.848 502.399 350.424C501.343 351 500.107 351.288 498.691 351.288C497.059 351.288 495.571 350.868 494.227 350.028C492.883 349.164 491.815 347.952 491.023 346.392C490.255 344.808 489.871 342.984 489.871 340.92ZM504.919 340.956C504.919 339.42 504.487 338.208 503.623 337.32C502.783 336.432 501.751 335.988 500.527 335.988C499.303 335.988 498.259 336.432 497.395 337.32C496.555 338.184 496.135 339.384 496.135 340.92C496.135 342.456 496.555 343.68 497.395 344.592C498.259 345.48 499.303 345.924 500.527 345.924C501.751 345.924 502.783 345.48 503.623 344.592C504.487 343.704 504.919 342.492 504.919 340.956ZM521.685 324.36V351H515.529V324.36H521.685Z" fill="white"/>
<defs>
<filter id="filter0_d_1_3" x="284.176" y="138.305" width="134.65" height="133.249" filterUnits="userSpaceOnUse" color-interpolation-filters="sRGB">
<feFlood flood-opacity="0" result="BackgroundImageFix"/>
<feColorMatrix in="SourceAlpha" type="matrix" values="0 0 0 0 0 0 0 0 0 0 0 0 0 0 0 0 0 0 127 0" result="hardAlpha"/>
<feOffset dy="1.12978"/>
<feGaussianBlur stdDeviation="1.41223"/>
<feComposite in2="hardAlpha" operator="out"/>
<feColorMatrix type="matrix" values="0 0 0 0 0 0 0 0 0 0 0 0 0 0 0 0 0 0 0.25 0"/>
<feBlend mode="normal" in2="BackgroundImageFix" result="effect1_dropShadow_1_3"/>
<feBlend mode="normal" in="SourceGraphic" in2="effect1_dropShadow_1_3" result="shape"/>
</filter>
<filter id="filter1_d_1_3" x="361.999" y="168.744" width="133.567" height="134.069" filterUnits="userSpaceOnUse" color-interpolation-filters="sRGB">
<feFlood flood-opacity="0" result="BackgroundImageFix"/>
<feColorMatrix in="SourceAlpha" type="matrix" values="0 0 0 0 0 0 0 0 0 0 0 0 0 0 0 0 0 0 127 0" result="hardAlpha"/>
<feOffset dy="1.12978"/>
<feGaussianBlur stdDeviation="1.41223"/>
<feComposite in2="hardAlpha" operator="out"/>
<feColorMatrix type="matrix" values="0 0 0 0 0 0 0 0 0 0 0 0 0 0 0 0 0 0 0.25 0"/>
<feBlend mode="normal" in2="BackgroundImageFix" result="effect1_dropShadow_1_3"/>
<feBlend mode="normal" in="SourceGraphic" in2="effect1_dropShadow_1_3" result="shape"/>
</filter>
<linearGradient id="paint0_linear_1_3" x1="415.372" y1="217.748" x2="360.577" y2="172.981" gradientUnits="userSpaceOnUse">
<stop stop-color="#0F052F"/>
<stop offset="1" stop-color="#43D9B8"/>
</linearGradient>
<linearGradient id="paint1_linear_1_3" x1="364.856" y1="221.525" x2="420.079" y2="265.763" gradientUnits="userSpaceOnUse">
<stop stop-color="#0F052F"/>
<stop offset="1" stop-color="#43D9B8"/>
</linearGradient>
</defs>
</svg>
